<svg width="32" height="32" viewBox="0 0 32 32" xmlns="http://www.w3.org/2000/svg">
  <!-- Simplified shield -->
  <path d="M4 6 C4 3, 6 2, 16 2 C26 2, 28 3, 28 6 L28 18 C28 23, 22 28, 16 30 C10 28, 4 23, 4 18 Z" 
        fill="url(#miniGradient)" stroke="#0066cc" stroke-width="1"/>
  
  <!-- Simple brain -->
  <ellipse cx="16" cy="12" rx="8" ry="5" fill="#003d7a"/>
  <path d="M10 10 C12 9, 14 10, 16 9 M18 10 C20 9, 22 10, 22 11" 
        stroke="#66b3ff" stroke-width="0.5" fill="none"/>
  
  <!-- Mini buildings -->
  <rect x="8" y="20" width="2" height="6" fill="#4da6ff"/>
  <rect x="12" y="18" width="2" height="8" fill="#66b3ff"/>
  <rect x="16" y="17" width="2" height="9" fill="#4da6ff"/>
  <rect x="20" y="19" width="2" height="7" fill="#66b3ff"/>
  
  <!-- Gradient -->
  <defs>
    <linearGradient id="miniGradient">
      <stop offset="0%" stop-color="#e6f3ff"/>
      <stop offset="100%" stop-color="#80bfff"/>
    </linearGradient>
  </defs>
</svg>